<svg width="215" height="215" viewBox="0 0 215 215" fill="none" xmlns="http://www.w3.org/2000/svg">
<g clip-path="url(#clip0)">
<path d="M191.74 84.7781C204.483 131.109 177.254 178.998 130.924 191.741C84.5926 204.483 36.7037 177.255 23.961 130.924C11.2182 84.5927 38.447 36.7039 84.7779 23.9611C131.109 11.2184 178.998 38.4471 191.74 84.7781Z" fill="#20CD46"/>
<path d="M68.2861 73.3809C68.2861 73.3809 79.6483 75.2411 84.894 76.8563" stroke="black" stroke-miterlimit="10" stroke-linecap="round" stroke-linejoin="round"/>
<path d="M86.7522 39.0979L103.869 76.6671" stroke="black" stroke-miterlimit="10" stroke-linecap="round" stroke-linejoin="round"/>
<path d="M125.587 127.398C125.6 127.444 100.366 72.8013 100.366 72.8013" stroke="black" stroke-width="1.126" stroke-miterlimit="10" stroke-linecap="round" stroke-linejoin="round"/>
<path d="M102.491 77.8931L102.558 77.8523" stroke="black" stroke-width="0.25" stroke-miterlimit="10" stroke-linecap="round" stroke-linejoin="round"/>
<path d="M89.2727 140.633L89.3271 140.729C89.3271 140.729 88.8001 140.757 89.1966 141.166C89.5479 141.532 90.2278 141.412 89.8176 140.589C89.5196 139.991 89.3271 140.729 89.3271 140.729" fill="#231F20"/>
<path d="M89.2727 140.633L89.3271 140.729C89.3271 140.729 88.8001 140.757 89.1966 141.166C89.5479 141.532 90.2278 141.412 89.8176 140.589C89.5196 139.991 89.3271 140.729 89.3271 140.729" stroke="black" stroke-width="0.25" stroke-miterlimit="10" stroke-linecap="round" stroke-linejoin="round"/>
<path d="M124.051 127.241C124.051 127.241 131.494 125.422 137.365 124.593C143.235 123.758 146.104 123.398 146.104 123.398" stroke="black" stroke-width="0.626" stroke-miterlimit="10" stroke-linecap="round" stroke-linejoin="round"/>
<path d="M86.9661 141.785C87.287 140.522 90.7496 138.55 93.2233 137.357C95.9883 136.029 103.262 132.925 114.399 129.656" stroke="black" stroke-width="0.626" stroke-miterlimit="10" stroke-linecap="round" stroke-linejoin="round"/>
<path d="M126.749 126.621C126.749 126.621 126.387 127.027 126.313 127.103C125.854 127.58 122.34 131.917 121.613 134.094" stroke="black" stroke-width="0.626" stroke-miterlimit="10" stroke-linejoin="round"/>
<path d="M137.865 132.548C137.865 132.548 140.95 133.961 143.261 132.34C143.261 132.34 146.528 132.533 147.526 131.562C147.526 131.562 148.625 132.179 149.145 131.457C149.145 131.457 148.698 131.168 149.045 130.81C149.218 130.629 149.477 130.758 149.651 131.006C150.655 128.563 146.177 123.378 146.208 123.369C146.208 123.369 133.456 131.321 113.719 136.861C93.9812 142.401 87.9781 142.994 86.8645 141.841C88.6924 143.728 90.7355 144.291 93.023 144.547C93.694 144.213 94.4152 143.797 95.1682 143.295C95.1682 143.295 98.9113 144.671 101.172 142.278C101.172 142.278 106.93 142.315 107.983 140.533C107.983 140.533 113.341 142.597 113.836 138.461C113.836 138.461 116.138 139.543 119.219 136.992C119.219 136.992 127.106 137.296 130.834 134.12C130.834 134.12 133.893 135.663 136.749 133.836" fill="black"/>
<path d="M137.865 132.548C137.865 132.548 140.95 133.961 143.261 132.34C143.261 132.34 146.528 132.533 147.526 131.562C147.526 131.562 148.625 132.179 149.145 131.457C149.145 131.457 148.698 131.168 149.045 130.81C149.218 130.629 149.477 130.758 149.651 131.006C150.655 128.563 146.177 123.378 146.208 123.369C146.208 123.369 133.456 131.321 113.719 136.861C93.9812 142.401 87.9781 142.994 86.8645 141.841C88.6924 143.728 90.7355 144.291 93.023 144.547C93.694 144.213 94.4152 143.797 95.1682 143.295C95.1682 143.295 98.9113 144.671 101.172 142.278C101.172 142.278 106.93 142.315 107.983 140.533C107.983 140.533 113.341 142.597 113.836 138.461C113.836 138.461 116.138 139.543 119.219 136.992C119.219 136.992 127.106 137.296 130.834 134.12C130.834 134.12 133.893 135.663 136.749 133.836" stroke="#231F20" stroke-width="0.25" stroke-miterlimit="10" stroke-linecap="round" stroke-linejoin="round"/>
<path d="M124.985 126.405C118.067 126.809 100.081 129.806 91.9935 131.529C79.7083 134.151 63.063 137.81 63.063 137.81" stroke="black" stroke-miterlimit="10" stroke-linecap="round" stroke-linejoin="round"/>
<path d="M123.896 126.676C123.896 126.676 120.104 129.942 119.166 131.13C119.166 131.13 116.813 131.888 114.467 132.617C112.122 133.346 110.879 133.949 110.879 133.949C110.879 133.949 110.924 133.525 113.067 131.069C115.163 128.666 115.56 128.551 115.56 128.551C115.56 128.551 116.371 128.239 119.783 127.44C123.231 126.631 123.896 126.676 123.896 126.676Z" fill="#231F20"/>
<path d="M123.896 126.676C123.896 126.676 120.104 129.942 119.166 131.13C119.166 131.13 116.813 131.888 114.467 132.617C112.122 133.346 110.879 133.949 110.879 133.949C110.879 133.949 110.924 133.525 113.067 131.069C115.163 128.666 115.56 128.551 115.56 128.551C115.56 128.551 116.371 128.239 119.783 127.44C123.231 126.631 123.896 126.676 123.896 126.676Z" stroke="black" stroke-width="0.626" stroke-miterlimit="10" stroke-linecap="round" stroke-linejoin="round"/>
<path d="M110.861 133.926L111.218 135.951" stroke="black" stroke-width="0.626" stroke-miterlimit="10" stroke-linejoin="round"/>
<path d="M118.351 131.387C118.351 131.387 118.351 132.195 118.705 133.178" stroke="black" stroke-width="0.626" stroke-miterlimit="10" stroke-linejoin="round"/>
<path d="M111.957 133.413C111.957 133.413 112.14 135.173 112.298 135.442" stroke="black" stroke-width="0.626" stroke-miterlimit="10" stroke-linejoin="round"/>
<path d="M112.852 133.061C112.852 133.061 113.063 134.802 113.245 135.181" stroke="black" stroke-width="0.626" stroke-miterlimit="10" stroke-linejoin="round"/>
<path d="M113.958 132.607C113.958 132.607 114.263 134.222 114.506 134.601" stroke="black" stroke-width="0.626" stroke-miterlimit="10" stroke-linejoin="round"/>
<path d="M115.305 132.198C115.305 132.198 115.601 133.681 115.863 134.227" stroke="black" stroke-width="0.626" stroke-miterlimit="10" stroke-linejoin="round"/>
<path d="M116.225 131.939C116.225 131.939 116.497 133.435 116.782 133.963" stroke="black" stroke-width="0.626" stroke-miterlimit="10" stroke-linejoin="round"/>
<path d="M117.577 131.69C117.577 131.69 117.9 133.249 118.096 133.558" stroke="black" stroke-width="0.626" stroke-miterlimit="10" stroke-linejoin="round"/>
<path d="M120.753 129.384C120.753 129.384 121.071 130.684 121.403 131.183" stroke="black" stroke-width="0.626" stroke-miterlimit="10" stroke-linejoin="round"/>
<path d="M123.526 129.118C124.17 128.645 124.409 128.541 124.409 128.541L123.896 126.676" stroke="black" stroke-width="0.626" stroke-miterlimit="10" stroke-linecap="round" stroke-linejoin="round"/>
<path d="M113.007 131.258C113.007 131.258 103.604 134.151 97.547 136.937C95.1739 138.029 93.4843 138.934 93.1131 139.387C92.742 139.84 92.9397 139.992 93.4709 139.918C95.0762 139.699 103.898 138.036 110.104 135.872C110.104 135.872 110.325 136.146 110.433 136.116C110.547 136.085 112.849 135.218 116.366 134.094C119.843 132.982 120.042 132.816 120.042 132.816C120.042 132.816 120.399 132.089 122.108 130.382C122.711 129.782 123.176 129.386 123.532 129.121" stroke="black" stroke-width="0.626" stroke-miterlimit="10" stroke-linecap="round"/>
<path d="M94.1396 138.642C96.3506 137.527 102 135.406 105.459 134.17C107.808 133.335 112.302 131.993 112.302 131.993" stroke="black" stroke-width="0.626" stroke-miterlimit="10" stroke-linecap="round" stroke-linejoin="round"/>
<path d="M94.6727 139.71C99.5052 137.596 102.736 136.178 107.128 134.731C108.716 134.205 111.249 133.452 111.249 133.452" stroke="black" stroke-width="0.626" stroke-miterlimit="10" stroke-linecap="round" stroke-linejoin="round"/>
<path d="M101.792 72.1309L100.73 74.1219" stroke="black" stroke-width="0.876" stroke-miterlimit="10" stroke-linecap="round" stroke-linejoin="round"/>
<path d="M103.591 76.0808L102.302 77.4882" stroke="black" stroke-width="0.876" stroke-miterlimit="10" stroke-linecap="round" stroke-linejoin="round"/>
<path d="M141.804 123.985C137.392 125.36 128.549 130.248 124.601 133.027" stroke="black" stroke-width="0.5" stroke-miterlimit="10" stroke-linecap="round" stroke-linejoin="round"/>
<path d="M137.976 124.508C134.006 126.012 124.182 131.505 121.613 134.094" stroke="black" stroke-width="0.5" stroke-miterlimit="10" stroke-linecap="round" stroke-linejoin="round"/>
<path d="M135.623 124.86C132.389 125.922 126.627 129.134 122.856 131.725" stroke="black" stroke-width="0.5" stroke-miterlimit="10" stroke-linecap="round" stroke-linejoin="round"/>
<path d="M132.939 125.309C130.502 126.152 126.399 128.528 123.961 130.095" stroke="black" stroke-width="0.5" stroke-miterlimit="10" stroke-linecap="round" stroke-linejoin="round"/>
<path d="M130.466 125.816C129.12 126.187 125.106 128.566 125.106 128.566" stroke="black" stroke-width="0.5" stroke-miterlimit="10" stroke-linecap="round" stroke-linejoin="round"/>
<path d="M145.707 123.451C136.233 128.68 127.424 132.072 121.619 134.092" stroke="black" stroke-width="0.626" stroke-miterlimit="10" stroke-linecap="round" stroke-linejoin="round"/>
<path d="M127.897 129.236L127.767 127.712L128.2 127.542L128.921 128.748C128.921 128.748 128.962 129.099 128.484 129.264C127.993 129.421 127.897 129.236 127.897 129.236Z" fill="#231F20"/>
<path d="M127.897 129.236L127.767 127.712L128.2 127.542L128.921 128.748C128.921 128.748 128.962 129.099 128.484 129.264C127.993 129.421 127.897 129.236 127.897 129.236Z" stroke="black" stroke-width="0.626" stroke-miterlimit="10" stroke-linecap="round" stroke-linejoin="round"/>
<path d="M101.15 74.0507C101.198 74.2268 101.113 74.4008 100.957 74.4435C100.802 74.4863 100.638 74.3754 100.591 74.2046C100.542 74.0285 100.628 73.8545 100.784 73.8118C100.939 73.769 101.102 73.8747 101.15 74.0507Z" stroke="black" stroke-width="1.126" stroke-miterlimit="10" stroke-linecap="round" stroke-linejoin="round"/>
<path d="M103.434 76.6642C103.514 76.9542 103.098 77.2636 102.689 77.3762C102.279 77.4887 101.884 77.3468 101.803 77.0516C101.723 76.7616 101.989 76.4323 102.398 76.3198C102.808 76.2124 103.354 76.3742 103.434 76.6642Z" stroke="black" stroke-width="1.126" stroke-miterlimit="10" stroke-linecap="round" stroke-linejoin="round"/>
<path d="M87.1403 141.487C87.0506 141.606 86.8765 141.905 87.226 142.143" stroke="#231F20" stroke-width="0.376" stroke-miterlimit="10" stroke-linecap="round" stroke-linejoin="round"/>
<path d="M95.4603 136.965C95.4603 136.965 95.1533 136.598 95.3449 136.545C95.5417 136.491 95.6228 136.725 95.6228 136.725" stroke="black" stroke-width="0.5" stroke-miterlimit="10" stroke-linecap="round" stroke-linejoin="round"/>
<path d="M121.241 133.812C121.241 133.812 121.05 133.425 121.32 133.35C121.491 133.303 121.65 133.7 121.65 133.7" stroke="black" stroke-width="0.5" stroke-miterlimit="10" stroke-linecap="round" stroke-linejoin="round"/>
<path d="M124.05 129.241C124.05 129.241 123.965 128.975 124.162 128.92C124.333 128.873 124.411 129.136 124.411 129.136" stroke="black" stroke-width="0.5" stroke-miterlimit="10" stroke-linecap="round" stroke-linejoin="round"/>
<path d="M144.952 123.581C140.613 125.164 134.729 127.668 130.214 130.815" stroke="black" stroke-width="0.5" stroke-miterlimit="10" stroke-linecap="round" stroke-linejoin="round"/>
<path d="M119.211 131.051C119.211 131.051 119.502 132.168 119.966 132.865" stroke="black" stroke-width="0.626" stroke-miterlimit="10" stroke-linecap="round" stroke-linejoin="round"/>
<path d="M122.412 127.926C122.412 127.926 122.757 129.179 123.073 129.476" stroke="black" stroke-width="0.626" stroke-miterlimit="10" stroke-linejoin="round"/>
<path d="M149.616 130.798C149.879 131.088 149.605 131.548 150.066 131.828C150.486 132.08 152.015 131.704 152.015 131.704" stroke="black" stroke-width="0.66" stroke-miterlimit="10" stroke-linejoin="round"/>
<path d="M93.1992 144.276C90.6853 146.093 88.2468 146.34 88.2468 146.34" stroke="black" stroke-width="0.66" stroke-miterlimit="10" stroke-linejoin="round"/>
<path d="M101.142 142.069C101.142 142.069 105.785 142.486 107.985 140.521C107.985 140.521 111.934 141.836 114.169 140.787" stroke="black" stroke-width="0.66" stroke-miterlimit="10" stroke-linejoin="round"/>
<path d="M96.0649 145.644C96.0649 145.644 97.6513 146.065 99.7052 144.197C99.7052 144.197 100.251 145.757 103.786 143.52" stroke="black" stroke-width="0.66" stroke-miterlimit="10" stroke-linejoin="round"/>
<path d="M111.083 142.956C111.083 142.956 113.987 143.589 114.81 142.087C114.81 142.087 118.515 141.402 118.811 140.491" stroke="black" stroke-width="0.66" stroke-miterlimit="10" stroke-linejoin="round"/>
<path d="M123.958 138.952C123.958 138.952 128.863 138.338 130.141 136.483C130.141 136.483 131.057 137.768 133.803 136.774" stroke="black" stroke-width="0.66" stroke-miterlimit="10" stroke-linejoin="round"/>
<path d="M127.852 138.55C127.852 138.55 133.517 138.468 136.256 136.032C136.256 136.032 138.525 136.951 141.165 136.181" stroke="black" stroke-width="0.66" stroke-miterlimit="10" stroke-linejoin="round"/>
<path d="M145.496 132.912C145.43 132.896 147.737 133.365 148.676 132.789" stroke="black" stroke-width="0.66" stroke-miterlimit="10" stroke-linejoin="round"/>
<path d="M146.057 133.615C146.057 133.615 149.257 134.089 150.169 132.484" stroke="black" stroke-width="0.66" stroke-miterlimit="10" stroke-linejoin="round"/>
<path d="M145.716 136.282C145.716 136.282 145.743 137.15 148.641 136.286C151.539 135.422 150.993 134.875 152.98 134.646C154.966 134.412 155.38 134.582 156.175 133.484" stroke="black" stroke-width="0.66" stroke-miterlimit="10" stroke-linejoin="round"/>
<path d="M153.162 132.107C153.162 132.107 153.836 132.957 154.893 132.65C155.949 132.337 156.968 132.358 159.124 130.272" stroke="black" stroke-width="0.66" stroke-miterlimit="10" stroke-linejoin="round"/>
<path d="M139.119 135.406C139.119 135.406 141.987 136.072 143.721 134.642" stroke="black" stroke-width="0.66" stroke-miterlimit="10" stroke-linejoin="round"/>
<path d="M135.727 140.004C135.727 140.004 137.56 140.976 140.926 138.574" stroke="black" stroke-width="0.66" stroke-miterlimit="10" stroke-linejoin="round"/>
<path d="M106.801 143.972C106.801 143.972 108.242 144.534 109.856 143.878" stroke="black" stroke-width="0.66" stroke-miterlimit="10" stroke-linejoin="round"/>
<path d="M121.745 142.653C121.745 142.653 123.362 143.043 124.844 142.134" stroke="black" stroke-width="0.66" stroke-miterlimit="10" stroke-linejoin="round"/>
<path d="M81.0304 150.642C81.0304 150.642 88.2027 150.129 91.6012 147.479C91.6012 147.479 99.3734 148.377 102.511 145.547" stroke="black" stroke-width="0.66" stroke-miterlimit="10" stroke-linejoin="round"/>
<path d="M80.2485 147.799C80.2485 147.799 82.9883 149.012 85.0213 147.25" stroke="black" stroke-width="0.66" stroke-miterlimit="10" stroke-linejoin="round"/>
<path d="M81.4507 144.84C81.4507 144.84 84.4103 145.312 86.4763 143.792" stroke="black" stroke-width="0.66" stroke-miterlimit="10" stroke-linejoin="round"/>
<path d="M71.1836 148.683C71.1836 148.683 75.8974 148.729 80.9641 146.21" stroke="black" stroke-width="0.66" stroke-miterlimit="10" stroke-linejoin="round"/>
<path d="M73.1046 151.313C73.1046 151.313 76.4091 150.71 79.092 148.881" stroke="black" stroke-width="0.66" stroke-miterlimit="10" stroke-linejoin="round"/>
<path d="M104.788 88.0672C104.788 88.0672 94.7317 81.6591 88.6353 78.4899C82.544 75.3192 72.4078 71.8407 72.4078 71.8407C72.4078 71.8407 75.3521 70.8805 80.3848 63.6812C85.416 56.4766 87.5393 40.8255 87.5393 40.8255L121.392 133.553" stroke="black" stroke-width="0.66" stroke-miterlimit="10" stroke-linecap="round" stroke-linejoin="round"/>
<path d="M103.866 76.9188C103.866 76.9188 104.993 74.8819 106.726 73.5866" stroke="black" stroke-width="0.66" stroke-miterlimit="10" stroke-linecap="round" stroke-linejoin="round"/>
<path d="M87.804 41.5659L164.036 115.993L163.429 116.115L103.851 76.923" stroke="black" stroke-width="0.66" stroke-miterlimit="10" stroke-linecap="round" stroke-linejoin="round"/>
<path d="M110.468 81.2579C104.98 69.5662 104.996 69.6062 100.789 62.4696C96.5892 55.3419 89.7947 45.7864 89.7947 45.7864" stroke="black" stroke-width="0.66" stroke-miterlimit="10" stroke-linecap="round" stroke-linejoin="round"/>
<path d="M102.558 77.8522L103.897 76.9101L103.194 77.4712C103.194 77.4712 110.081 88.5164 115.644 100.076C120.987 111.178 125.252 126.22 125.582 127.399" stroke="black" stroke-width="0.66" stroke-miterlimit="10" stroke-linecap="round" stroke-linejoin="round"/>
<path d="M148.499 127.852L164.036 115.993L147.006 124.47" stroke="black" stroke-width="0.66" stroke-miterlimit="10" stroke-linecap="round" stroke-linejoin="round"/>
<path d="M124.195 129.062L69.7698 74.0366" stroke="black" stroke-width="0.66" stroke-miterlimit="10" stroke-linecap="round" stroke-linejoin="round"/>
<path d="M63.6897 137.637L64.5013 136.517C66.2705 132.783 69.8714 117.806 70.9165 100.848C71.9602 83.8838 69.6936 73.6176 69.6936 73.6176" stroke="black" stroke-width="0.66" stroke-miterlimit="10" stroke-linecap="round" stroke-linejoin="round"/>
<path d="M64.5027 136.523C64.5027 136.523 71.2768 130.632 82.713 116.074C94.1492 101.515 101.144 85.8165 101.144 85.8165" stroke="black" stroke-width="0.66" stroke-miterlimit="10" stroke-linecap="round" stroke-linejoin="round"/>
<path d="M86.9172 141.749L85.48 140.412L79.6907 134.167" stroke="black" stroke-width="0.66" stroke-miterlimit="10" stroke-linecap="round" stroke-linejoin="round"/>
<path d="M80.1179 134.06L89.2726 140.633" stroke="black" stroke-width="0.66" stroke-miterlimit="10" stroke-linecap="round" stroke-linejoin="round"/>
<path d="M80.4338 133.973L95.4726 136.766" stroke="black" stroke-width="0.66" stroke-miterlimit="10" stroke-linecap="round" stroke-linejoin="round"/>
<path d="M149.677 130.837L164.037 115.993C164.037 115.993 141.041 121.069 135.928 122.81C131.375 124.363 126.448 126.437 125.666 126.875" stroke="black" stroke-width="0.66" stroke-miterlimit="10" stroke-linecap="round" stroke-linejoin="round"/>
<path d="M85.5544 140.48L87.2756 141.149" stroke="black" stroke-width="0.66" stroke-miterlimit="10" stroke-linecap="round" stroke-linejoin="round"/>
<path d="M134.685 135.122C134.685 135.122 136.598 134.34 137.867 132.554" stroke="black" stroke-width="0.66" stroke-miterlimit="10" stroke-linejoin="round"/>
<path d="M86.8292 77.5941L84.2363 76.8145L85.245 76.8768L86.8292 77.5941Z" stroke="black" stroke-width="0.5" stroke-miterlimit="10"/>
<path d="M84.9885 76.8359C85.1803 76.8837 85.2015 76.9001 85.2015 76.9001" stroke="black" stroke-width="0.2" stroke-miterlimit="10"/>
<path d="M86.8833 162.384L89.6175 161.632L94.3118 171.916L93.2061 160.645L95.3966 160.043L100.448 170.451L98.9437 159.067L101.662 158.319L102.977 173.225L99.8441 174.087L95.7372 165.575L96.6957 174.953L93.5421 175.82L86.8833 162.384Z" fill="#231F20"/>
<path d="M103.206 157.895L110.492 155.891L111.141 158.252L106.48 159.534L107.383 162.817L111.728 161.622L112.346 163.87L108.002 165.065L109.075 168.969L113.85 167.656L114.509 170.053L107.109 172.089L103.206 157.895Z" fill="#231F20"/>
<path d="M112.77 155.264L117.016 154.096C119.45 153.427 120.927 154.218 121.57 156.559C122.089 158.444 121.784 159.625 120.671 160.154C122.023 159.988 123.153 160.914 123.677 162.82C124.507 165.839 123.654 167.538 120.993 168.27L116.669 169.46L112.765 155.266L112.77 155.264ZM117.808 160.073C119.149 159.704 119.428 159.098 119.008 157.57C118.613 156.136 118.059 155.882 116.681 156.261L115.868 156.484L116.922 160.316L117.808 160.073ZM119.78 166.432C121.136 166.058 121.467 165.338 121.01 163.676C120.517 161.884 119.822 161.563 118.232 162L117.44 162.218L118.68 166.728L119.778 166.426L119.78 166.432Z" fill="#231F20"/>
<path d="M127.675 161.074L127.924 161.98C128.344 163.508 128.79 164.176 130.002 163.843C131.136 163.531 131.56 162.785 131.258 161.687C130.977 160.667 130.32 160.341 129.01 159.871L127.388 159.281C125.228 158.516 124.14 158.024 123.589 156.02C122.935 153.644 124.053 151.793 126.523 151.114C129.148 150.392 131.003 151.464 131.746 154.167C131.793 154.338 131.84 154.509 131.867 154.685L129.355 155.376L129.251 154.998C128.835 153.486 128.208 152.968 127.038 153.289C126.188 153.523 125.821 154.192 126.065 155.078C126.314 155.984 127.07 156.222 128.277 156.619L130.002 157.203C132.215 157.937 133.271 158.677 133.842 160.754C134.548 163.322 133.441 165.209 130.686 165.966C127.838 166.75 126.06 165.673 125.23 162.654C125.157 162.39 125.1 162.1 125.032 161.795L127.673 161.069L127.675 161.074Z" fill="#231F20"/>
<path d="M135.482 149.017L132.841 149.744L136.745 163.938L139.386 163.211L135.482 149.017Z" fill="#231F20"/>
<path d="M140.781 150.078L137.742 150.914L137.098 148.573L145.818 146.175L146.462 148.515L143.428 149.35L146.688 161.203L144.041 161.931L140.781 150.078Z" fill="#231F20"/>
<path d="M147.439 145.729L154.725 143.725L155.375 146.086L150.709 147.369L151.612 150.653L155.957 149.458L156.575 151.705L152.23 152.9L153.304 156.804L158.084 155.49L158.743 157.887L151.343 159.923L147.439 145.729Z" fill="#231F20"/>
</g>
<defs>
<clipPath id="clip0">
<rect width="174.01" height="174.01" fill="white" transform="translate(0.888184 47.0339) rotate(-15.3782)"/>
</clipPath>
</defs>
</svg>
